<svg width="100" height="100" viewBox="0 0 100 100" fill="none" xmlns="http://www.w3.org/2000/svg">
    <path
        d="M100 50C100 77.6142 77.6142 100 50 100C22.3858 100 0 77.6142 0 50C0 22.3858 22.3858 0 50 0C77.6142 0 100 22.3858 100 50ZM10 50C10 72.0914 27.9086 90 50 90C72.0914 90 90 72.0914 90 50C90 27.9086 72.0914 10 50 10C27.9086 10 10 27.9086 10 50Z"
        fill="#1F3C52" />
    <path
        d="M95 50C97.7614 50 100.026 47.7558 99.7502 45.0082C98.9397 36.9296 96.1706 29.143 91.651 22.3379C86.2063 14.1398 78.4634 7.73074 69.3923 3.91379C60.3212 0.0968309 50.3254 -0.958294 40.6573 0.88061C30.9892 2.71951 22.0788 7.37066 15.0424 14.2513C8.00608 21.132 3.15672 29.9361 1.10195 39.5606C-0.952818 49.1851 -0.121614 59.202 3.49142 68.3563C7.10445 77.5105 13.3386 85.3949 21.4129 91.0216C28.1151 95.6923 35.8378 98.635 43.8962 99.6261C46.637 99.9632 48.9313 97.7495 48.9931 94.9887V94.9887C49.0549 92.228 46.8576 89.9719 44.1261 89.5664C38.038 88.6626 32.2168 86.362 27.1303 82.8173C20.6709 78.3159 15.6836 72.0084 12.7931 64.685C9.90271 57.3616 9.23775 49.3481 10.8816 41.6485C12.5254 33.9489 16.4049 26.9056 22.034 21.401C27.663 15.8965 34.7914 12.1756 42.5259 10.7045C50.2603 9.23336 58.257 10.0775 65.5138 13.131C72.7707 16.1846 78.9651 21.3118 83.3208 27.8703C86.7508 33.0348 88.9205 38.906 89.6879 45.0129C90.0322 47.7528 92.2386 50 95 50V50Z"
        fill="#ff8585" />
</svg>